<!-- Include this SVG code in your HTML file -->
<svg xmlns="http://www.w3.org/2000/svg" width="0" height="0" style="position: absolute;">
    <clipPath id="wrenchCutout" clipPathUnits="objectBoundingBox">
        <!-- Wrench shape path data -->
        <path d="
            M0.97,0.03
            C0.93,0.03 0.89,0.05 0.86,0.08
            L0.78,0.16
            C0.74,0.20 0.74,0.26 0.78,0.30
            L0.82,0.34
            L0.60,0.56
            L0.56,0.52
            C0.52,0.48 0.46,0.48 0.42,0.52
            L0.34,0.60
            C0.30,0.64 0.30,0.70 0.34,0.74
            L0.38,0.78
            L0.10,1.06
            L0.06,1.02
            C0.02,0.98 0.00,0.94 0.00,0.89
            C0.00,0.85 0.02,0.81 0.06,0.78
            L0.14,0.70
            C0.18,0.66 0.18,0.60 0.14,0.56
            L0.06,0.48
            C0.02,0.44 0.00,0.38 0.00,0.33
            C0.00,0.29 0.02,0.25 0.06,0.22
            L0.14,0.14
            C0.18,0.10 0.24,0.10 0.28,0.14
            L0.32,0.18
            L0.54,0.00
            L0.50,-0.04
            C0.46,-0.08 0.46,-0.14 0.50,-0.18
            L0.58,-0.26
            C0.62,-0.30 0.68,-0.30 0.72,-0.26
            L0.80,-0.18
            C0.84,-0.14 0.84,-0.08 0.80,-0.04
            L0.76,0.00
            L0.98,0.22
            L1.02,0.18
            C1.06,0.14 1.10,0.12 1.15,0.12
            C1.19,0.12 1.23,0.14 1.26,0.18
            L1.34,0.26
            C1.38,0.30 1.38,0.36 1.34,0.40
            L1.26,0.48
            C1.22,0.52 1.16,0.52 1.12,0.48
            L1.08,0.44
            L0.86,0.66
            L0.90,0.70
            C0.94,0.74 0.94,0.80 0.90,0.84
            L0.82,0.92
            C0.78,0.96 0.72,0.96 0.68,0.92
            L0.60,0.84
            C0.56,0.80 0.56,0.74 0.60,0.70
            L0.64,0.66
            L0.36,0.38
            L0.32,0.42
            C0.28,0.46 0.22,0.46 0.18,0.42
            L0.10,0.34
            C0.06,0.30 0.06,0.24 0.10,0.20
            L0.18,0.12
            C0.22,0.08 0.28,0.08 0.32,0.12
            L0.36,0.16
            L0.58,-0.06
            L0.54,-0.10
            C0.50,-0.14 0.50,-0.20 0.54,-0.24
            L0.62,-0.32
            C0.66,-0.36 0.72,-0.36 0.76,-0.32
            L0.84,-0.24
            C0.88,-0.20 0.88,-0.14 0.84,-0.10
            L0.80,-0.06
            L1.02,0.16
            L1.06,0.12
            C1.10,0.08 1.14,0.06 1.19,0.06
            C1.23,0.06 1.27,0.08 1.30,0.12
            L1.38,0.20
            C1.42,0.24 1.42,0.30 1.38,0.34
            L1.30,0.42
            C1.26,0.46 1.20,0.46 1.16,0.42
            L1.12,0.38
            L0.90,0.60
            L0.94,0.64
            C0.98,0.68 0.98,0.74 0.94,0.78
            L0.86,0.86
            C0.82,0.90 0.76,0.90 0.72,0.86
            L0.64,0.78
            C0.60,0.74 0.60,0.68 0.64,0.64
            L0.68,0.60
            L0.40,0.32
            L0.36,0.36
            C0.32,0.40 0.26,0.40 0.22,0.36
            L0.14,0.28
            C0.10,0.24 0.10,0.18 0.14,0.14
            L0.22,0.06
            C0.26,0.02 0.32,0.02 0.36,0.06
            L0.40,0.10
            L0.62,-0.12
            L0.58,-0.16
            C0.54,-0.20 0.54,-0.26 0.58,-0.30
            L0.66,-0.38
            C0.70,-0.42 0.76,-0.42 0.80,-0.38
            L0.88,-0.30
            C0.92,-0.26 0.92,-0.20 0.88,-0.16
            L0.84,-0.12
            L1.06,0.10
            L1.10,0.06
            C1.14,0.02 1.18,0.00 1.23,0.00
            C1.27,0.00 1.31,0.02 1.34,0.06
            L1.42,0.14
            C1.46,0.18 1.46,0.24 1.42,0.28
            L1.34,0.36
            C1.30,0.40 1.24,0.40 1.20,0.36
            L1.16,0.32
            L0.94,0.54
            L0.98,0.58
            C1.02,0.62 1.02,0.68 0.98,0.72
            L0.90,0.80
            C0.86,0.84 0.80,0.84 0.76,0.80
            L0.68,0.72
            C0.64,0.68 0.64,0.62 0.68,0.58
            L0.72,0.54
            L0.44,0.26
            L0.40,0.30
            C0.36,0.34 0.30,0.34 0.26,0.30
            L0.18,0.22
            C0.14,0.18 0.14,0.12 0.18,0.08
            L0.26,0.00
            C0.30,-0.04 0.36,-0.04 0.40,0.00
            L0.44,0.04
            L0.66,-0.18
            L0.62,-0.22
            C0.58,-0.26 0.58,-0.32 0.62,-0.36
            L0.70,-0.44
            C0.74,-0.48 0.80,-0.48 0.84,-0.44
            L0.92,-0.36
            C0.96,-0.32 0.96,-0.26 0.92,-0.22
            L0.88,-0.18
            L1.10,0.04
            L1.14,0.00
            C1.18,-0.04 1.22,-0.06 1.27,-0.06
            C1.31,-0.06 1.35,-0.04 1.38,0.00
            L1.46,0.08
            C1.50,0.12 1.50,0.18 1.46,0.22
            L1.38,0.30
            C1.34,0.34 1.28,0.34 1.24,0.30
            L1.20,0.26
            L0.98,0.48
            L1.02,0.52
            C1.06,0.56 1.06,0.62 1.02,0.66
            L0.94,0.74
            C0.90,0.78 0.84,0.78 0.80,0.74
            L0.72,0.66
            C0.68,0.62 0.68,0.56 0.72,0.52
            L0.76,0.48
            L0.48,0.20
            L0.44,0.24
            C0.40,0.28 0.34,0.28 0.30,0.24
            L0.22,0.16
            C0.18,0.12 0.18,0.06 0.22,0.02
            L0.30,-0.06
            C0.34,-0.10 0.40,-0.10 0.44,-0.06
            L0.48,-0.02
            L0.70,-0.24
            L0.66,-0.28
            C0.62,-0.32 0.62,-0.38 0.66,-0.42
            L0.74,-0.50
            C0.78,-0.54 0.84,-0.54 0.88,-0.50
            L0.96,-0.42
            C1.00,-0.38 1.00,-0.32 0.96,-0.28
            L0.92,-0.24
            L1.14,-0.02
            L1.18,-0.06
            C1.22,-0.10 1.26,-0.12 1.31,-0.12
            C1.35,-0.12 1.39,-0.10 1.42,-0.06
            L1.50,0.02
            C1.54,0.06 1.54,0.12 1.50,0.16
            L1.42,0.24
            C1.38,0.28 1.32,0.28 1.28,0.24
            L1.24,0.20
            L1.02,0.42
            L1.06,0.46
            C1.10,0.50 1.10,0.56 1.06,0.60
            L0.98,0.68
            C0.94,0.72 0.88,0.72 0.84,0.68
            L0.76,0.60
            C0.72,0.56 0.72,0.50 0.76,0.46
            L0.80,0.42
            L0.52,0.14
            L0.48,0.18
            C0.44,0.22 0.38,0.22 0.34,0.18
            L0.26,0.10
            C0.22,0.06 0.22,0.00 0.26,-0.04
            L0.34,-0.12
            C0.38,-0.16 0.44,-0.16 0.48,-0.12
            L0.52,-0.08
            L0.74,-0.30
            L0.70,-0.34
            C0.66,-0.38 0.66,-0.44 0.70,-0.48
            L0.78,-0.56
            C0.82,-0.60 0.88,-0.60 0.92,-0.56
            L1.00,-0.48
            C1.04,-0.44 1.04,-0.38 1.00,-0.34
            L0.96,-0.30
            L1.18,-0.08
            L1.22,-0.12
            C1.26,-0.16 1.30,-0.18 1.35,-0.18
            C1.39,-0.18 1.43,-0.16 1.46,-0.12
            L1.54,-0.04
            C1.58,0.00 1.58,0.06 1.54,0.10
            L1.46,0.18
            C1.42,0.22 1.36,0.22 1.32,0.18
            L1.28,0.14
            L1.06,0.36
            L1.10,0.40
            C1.14,0.44 1.14,0.50 1.10,0.54
            L1.02,0.62
            C0.98,0.66 0.92,0.66 0.88,0.62
            L0.80,0.54
            C0.76,0.50 0.76,0.44 0.80,0.40
            L0.84,0.36
            L0.56,0.08
            L0.52,0.12
            C0.48,0.16 0.42,0.16 0.38,0.12
            L0.30,0.04
            C0.26,0.00 0.26,-0.06 0.30,-0.10
            L0.38,-0.18
            C0.42,-0.22 0.48,-0.22 0.52,-0.18
            L0.56,-0.14
            Z"/>
    </clipPath>
</svg>
